<?xml version="1.0" standalone="no"?>
<!DOCTYPE svg PUBLIC "-//W3C//DTD SVG 20010904//EN"
 "http://www.w3.org/TR/2001/REC-SVG-20010904/DTD/svg10.dtd">
<svg version="1.0" xmlns="http://www.w3.org/2000/svg"
 width="1024.000000pt" height="1024.000000pt" viewBox="0 0 1024.000000 1024.000000"
 preserveAspectRatio="xMidYMid meet">
<metadata>
Created by potrace 1.14, written by Peter Selinger 2001-2017
</metadata>
<g transform="translate(0.000000,1024.000000) scale(0.100000,-0.100000)"
fill="#000000" stroke="none">
<path d="M0 5120 l0 -5120 5120 0 5120 0 0 5120 0 5120 -5120 0 -5120 0 0
-5120z m5260 3198 l139 -253 65 -26 c141 -57 278 -194 363 -364 99 -197 128
-459 75 -677 l-19 -76 81 67 c195 163 375 252 621 308 103 23 137 25 525 33
228 5 441 12 472 16 l58 7 -26 -74 c-50 -148 -84 -298 -104 -459 -32 -259 -79
-417 -173 -585 -78 -139 -189 -269 -301 -352 l-59 -44 44 8 c75 13 278 7 351
-10 288 -70 543 -277 618 -501 18 -56 24 -63 58 -76 55 -20 426 -181 435 -190
4 -3 -90 -54 -209 -111 -119 -57 -226 -108 -237 -114 -13 -7 -27 -35 -41 -85
-30 -103 -77 -181 -167 -275 -94 -98 -201 -164 -341 -213 -95 -33 -114 -36
-250 -40 -182 -6 -254 9 -392 78 l-98 50 76 0 c269 0 504 111 640 304 81 114
112 192 126 320 32 280 -163 582 -461 714 -78 35 -123 47 -264 72 -60 10 -159
30 -218 44 -282 65 -583 55 -783 -26 l-59 -24 28 84 c56 167 76 346 58 532
-11 109 -47 294 -70 352 l-10 27 -108 -62 c-132 -76 -187 -114 -278 -188 -73
-58 -225 -214 -225 -228 0 -5 -13 -23 -29 -40 -15 -16 -26 -33 -23 -36 3 -3 0
-5 -7 -5 -7 0 -17 -14 -23 -31 -8 -22 -13 -27 -19 -18 -4 8 -5 16 -1 19 4 3 8
11 10 19 2 11 0 12 -10 3 -11 -8 -26 6 -71 67 -119 161 -303 318 -506 431 -61
34 -114 61 -118 61 -23 -3 -73 -287 -80 -456 -7 -165 12 -318 55 -448 l27 -83
-58 24 c-193 78 -481 90 -752 32 -49 -10 -117 -24 -150 -31 -33 -7 -62 -14
-64 -15 -5 -4 65 -128 127 -224 62 -97 181 -241 223 -271 16 -11 26 -25 23
-31 -4 -6 -2 -8 4 -4 6 3 18 -4 27 -16 8 -13 21 -23 28 -23 6 -1 11 -6 10 -13
-3 -11 10 -16 30 -13 5 1 6 -3 2 -9 -6 -9 7 -14 27 -11 5 0 7 -5 5 -12 -1 -6
4 -11 11 -10 6 2 12 -2 12 -7 0 -5 3 -9 8 -9 20 3 32 -2 26 -13 -4 -6 -3 -9 2
-5 5 3 24 -3 43 -13 l35 -17 -60 4 c-72 5 -24 5 -744 -3 -327 -3 -597 -8 -599
-10 -2 -2 2 -40 9 -85 23 -161 82 -280 195 -394 129 -130 282 -199 479 -215
61 -6 121 -10 134 -10 32 0 -159 -97 -228 -115 -71 -20 -277 -20 -367 0 -297
63 -540 260 -612 497 -13 40 -26 79 -29 86 -4 7 -112 63 -240 124 -127 62
-228 116 -224 120 8 8 186 87 366 162 l99 42 22 61 c62 173 210 328 408 426
136 68 233 90 397 91 74 1 153 -3 175 -7 l40 -9 -40 27 c-115 77 -269 260
-347 411 -86 167 -123 298 -158 552 -21 151 -63 320 -114 456 l-26 69 77 -7
c43 -4 254 -11 468 -16 422 -9 490 -16 667 -70 179 -56 381 -174 493 -289 21
-23 42 -41 46 -41 3 0 -2 35 -12 77 -62 259 -13 559 124 765 23 34 74 95 113
134 59 60 89 81 171 121 l100 48 38 70 c21 38 87 157 148 264 83 147 112 190
119 178 4 -9 71 -130 148 -269z m-140 -3206 c6 2 136 126 289 276 154 149 282
272 285 272 2 0 -124 -128 -282 -285 l-287 -284 470 -1 c337 0 465 -4 452 -11
-13 -7 -164 -10 -472 -7 l-453 3 29 -36 c16 -20 167 -171 337 -335 169 -165
307 -301 305 -303 -4 -5 -130 116 -455 438 l-228 225 -2 -480 -3 -479 -5 478
-5 477 -110 -111 c-60 -61 -213 -210 -340 -331 -191 -183 -173 -163 105 113
l335 334 -482 5 c-265 3 -485 9 -490 13 -4 5 214 7 485 5 l492 -3 -323 324
-322 324 325 -316 325 -316 5 497 5 497 3 -493 c1 -324 6 -492 12 -490z m640
605 c0 -2 -12 -14 -27 -28 l-28 -24 24 28 c23 25 31 32 31 24z"/>
</g>
</svg>
